<svg width="444" height="489" viewBox="0 0 444 489" fill="none" xmlns="http://www.w3.org/2000/svg">
<rect width="444" height="489" fill="#1E1E1E"/>
<rect x="0.5" y="0.5" width="443" height="488" fill="white" stroke="black"/>
<path d="M43.1364 37.7841V33.7273H62.25V37.7841H55.125V57H50.2614V37.7841H43.1364ZM70.6619 57.3409C68.8968 57.3409 67.3703 56.9659 66.0824 56.2159C64.8021 55.4583 63.8134 54.4053 63.1165 53.0568C62.4195 51.7008 62.071 50.1288 62.071 48.3409C62.071 46.5379 62.4195 44.9621 63.1165 43.6136C63.8134 42.2576 64.8021 41.2045 66.0824 40.4545C67.3703 39.697 68.8968 39.3182 70.6619 39.3182C72.4271 39.3182 73.9498 39.697 75.2301 40.4545C76.518 41.2045 77.5104 42.2576 78.2074 43.6136C78.9044 44.9621 79.2528 46.5379 79.2528 48.3409C79.2528 50.1288 78.9044 51.7008 78.2074 53.0568C77.5104 54.4053 76.518 55.4583 75.2301 56.2159C73.9498 56.9659 72.4271 57.3409 70.6619 57.3409ZM70.6847 53.5909C71.4877 53.5909 72.1581 53.3636 72.696 52.9091C73.2339 52.447 73.6392 51.8182 73.9119 51.0227C74.1922 50.2273 74.3324 49.322 74.3324 48.3068C74.3324 47.2917 74.1922 46.3864 73.9119 45.5909C73.6392 44.7955 73.2339 44.1667 72.696 43.7045C72.1581 43.2424 71.4877 43.0114 70.6847 43.0114C69.8741 43.0114 69.1922 43.2424 68.6392 43.7045C68.0938 44.1667 67.6809 44.7955 67.4006 45.5909C67.1278 46.3864 66.9915 47.2917 66.9915 48.3068C66.9915 49.322 67.1278 50.2273 67.4006 51.0227C67.6809 51.8182 68.0938 52.447 68.6392 52.9091C69.1922 53.3636 69.8741 53.5909 70.6847 53.5909ZM90.7415 57H82.4915V33.7273H90.8097C93.1506 33.7273 95.1657 34.1932 96.8551 35.125C98.5445 36.0492 99.8438 37.3788 100.753 39.1136C101.67 40.8485 102.128 42.9242 102.128 45.3409C102.128 47.7652 101.67 49.8485 100.753 51.5909C99.8438 53.3333 98.5369 54.6705 96.8324 55.6023C95.1354 56.5341 93.1051 57 90.7415 57ZM87.4119 52.7841H90.5369C91.9915 52.7841 93.215 52.5265 94.2074 52.0114C95.2074 51.4886 95.9574 50.6818 96.4574 49.5909C96.965 48.4924 97.2188 47.0758 97.2188 45.3409C97.2188 43.6212 96.965 42.2159 96.4574 41.125C95.9574 40.0341 95.2112 39.2311 94.2188 38.7159C93.2263 38.2008 92.0028 37.9432 90.5483 37.9432H87.4119V52.7841ZM113.568 57.3409C111.803 57.3409 110.277 56.9659 108.989 56.2159C107.708 55.4583 106.72 54.4053 106.023 53.0568C105.326 51.7008 104.977 50.1288 104.977 48.3409C104.977 46.5379 105.326 44.9621 106.023 43.6136C106.72 42.2576 107.708 41.2045 108.989 40.4545C110.277 39.697 111.803 39.3182 113.568 39.3182C115.333 39.3182 116.856 39.697 118.136 40.4545C119.424 41.2045 120.417 42.2576 121.114 43.6136C121.811 44.9621 122.159 46.5379 122.159 48.3409C122.159 50.1288 121.811 51.7008 121.114 53.0568C120.417 54.4053 119.424 55.4583 118.136 56.2159C116.856 56.9659 115.333 57.3409 113.568 57.3409ZM113.591 53.5909C114.394 53.5909 115.064 53.3636 115.602 52.9091C116.14 52.447 116.545 51.8182 116.818 51.0227C117.098 50.2273 117.239 49.322 117.239 48.3068C117.239 47.2917 117.098 46.3864 116.818 45.5909C116.545 44.7955 116.14 44.1667 115.602 43.7045C115.064 43.2424 114.394 43.0114 113.591 43.0114C112.78 43.0114 112.098 43.2424 111.545 43.7045C111 44.1667 110.587 44.7955 110.307 45.5909C110.034 46.3864 109.898 47.2917 109.898 48.3068C109.898 49.322 110.034 50.2273 110.307 51.0227C110.587 51.8182 111 52.447 111.545 52.9091C112.098 53.3636 112.78 53.5909 113.591 53.5909ZM161.597 45.3636C161.597 47.9015 161.116 50.0606 160.153 51.8409C159.199 53.6212 157.896 54.9811 156.244 55.9205C154.6 56.8523 152.752 57.3182 150.699 57.3182C148.631 57.3182 146.775 56.8485 145.131 55.9091C143.487 54.9697 142.188 53.6098 141.233 51.8295C140.278 50.0492 139.801 47.8939 139.801 45.3636C139.801 42.8258 140.278 40.6667 141.233 38.8864C142.188 37.1061 143.487 35.75 145.131 34.8182C146.775 33.8788 148.631 33.4091 150.699 33.4091C152.752 33.4091 154.6 33.8788 156.244 34.8182C157.896 35.75 159.199 37.1061 160.153 38.8864C161.116 40.6667 161.597 42.8258 161.597 45.3636ZM156.608 45.3636C156.608 43.7197 156.362 42.3333 155.869 41.2045C155.384 40.0758 154.699 39.2197 153.812 38.6364C152.926 38.053 151.888 37.7614 150.699 37.7614C149.509 37.7614 148.472 38.053 147.585 38.6364C146.699 39.2197 146.009 40.0758 145.517 41.2045C145.032 42.3333 144.79 43.7197 144.79 45.3636C144.79 47.0076 145.032 48.3939 145.517 49.5227C146.009 50.6515 146.699 51.5076 147.585 52.0909C148.472 52.6742 149.509 52.9659 150.699 52.9659C151.888 52.9659 152.926 52.6742 153.812 52.0909C154.699 51.5076 155.384 50.6515 155.869 49.5227C156.362 48.3939 156.608 47.0076 156.608 45.3636ZM186.628 45.3636C186.628 47.9015 186.147 50.0606 185.185 51.8409C184.23 53.6212 182.927 54.9811 181.276 55.9205C179.632 56.8523 177.783 57.3182 175.73 57.3182C173.662 57.3182 171.806 56.8485 170.162 55.9091C168.518 54.9697 167.219 53.6098 166.264 51.8295C165.31 50.0492 164.832 47.8939 164.832 45.3636C164.832 42.8258 165.31 40.6667 166.264 38.8864C167.219 37.1061 168.518 35.75 170.162 34.8182C171.806 33.8788 173.662 33.4091 175.73 33.4091C177.783 33.4091 179.632 33.8788 181.276 34.8182C182.927 35.75 184.23 37.1061 185.185 38.8864C186.147 40.6667 186.628 42.8258 186.628 45.3636ZM181.639 45.3636C181.639 43.7197 181.393 42.3333 180.901 41.2045C180.416 40.0758 179.73 39.2197 178.844 38.6364C177.957 38.053 176.92 37.7614 175.73 37.7614C174.541 37.7614 173.503 38.053 172.616 38.6364C171.73 39.2197 171.041 40.0758 170.548 41.2045C170.063 42.3333 169.821 43.7197 169.821 45.3636C169.821 47.0076 170.063 48.3939 170.548 49.5227C171.041 50.6515 171.73 51.5076 172.616 52.0909C173.503 52.6742 174.541 52.9659 175.73 52.9659C176.92 52.9659 177.957 52.6742 178.844 52.0909C179.73 51.5076 180.416 50.6515 180.901 49.5227C181.393 48.3939 181.639 47.0076 181.639 45.3636ZM190.273 57V33.7273H199.455C201.22 33.7273 202.723 34.0644 203.966 34.7386C205.208 35.4053 206.155 36.3333 206.807 37.5227C207.466 38.7045 207.795 40.0682 207.795 41.6136C207.795 43.1591 207.462 44.5227 206.795 45.7045C206.129 46.8864 205.163 47.8068 203.898 48.4659C202.64 49.125 201.117 49.4545 199.33 49.4545H193.477V45.5114H198.534C199.481 45.5114 200.261 45.3485 200.875 45.0227C201.496 44.6894 201.958 44.2311 202.261 43.6477C202.572 43.0568 202.727 42.3788 202.727 41.6136C202.727 40.8409 202.572 40.1667 202.261 39.5909C201.958 39.0076 201.496 38.5568 200.875 38.2386C200.254 37.9129 199.466 37.75 198.511 37.75H195.193V57H190.273Z" fill="black"/>
<rect x="42" y="170" width="365" height="63" fill="#E8E8E8"/>
<path d="M60.7102 195.99V193.455H72.6562V195.99H68.2031V208H65.1634V195.99H60.7102ZM76.1932 208.206C75.4972 208.206 74.8769 208.085 74.3324 207.844C73.7879 207.598 73.357 207.235 73.0398 206.757C72.7273 206.274 72.571 205.673 72.571 204.953C72.571 204.347 72.6823 203.838 72.9048 203.426C73.1274 203.014 73.4304 202.683 73.8139 202.432C74.1974 202.181 74.633 201.991 75.1207 201.864C75.6132 201.736 76.1293 201.646 76.669 201.594C77.3035 201.527 77.8149 201.466 78.2031 201.409C78.5914 201.348 78.8731 201.258 79.0483 201.139C79.2235 201.021 79.3111 200.846 79.3111 200.614V200.571C79.3111 200.121 79.169 199.773 78.8849 199.527C78.6056 199.281 78.2079 199.158 77.6918 199.158C77.1473 199.158 76.714 199.278 76.392 199.52C76.0701 199.757 75.857 200.055 75.7528 200.415L72.9545 200.188C73.0966 199.525 73.3759 198.952 73.7926 198.469C74.2093 197.981 74.7467 197.607 75.4048 197.347C76.0677 197.081 76.8348 196.949 77.706 196.949C78.312 196.949 78.892 197.02 79.446 197.162C80.0047 197.304 80.4995 197.524 80.9304 197.822C81.366 198.121 81.7093 198.504 81.9602 198.973C82.2112 199.437 82.3366 199.993 82.3366 200.642V208H79.4673V206.487H79.3821C79.2069 206.828 78.9725 207.129 78.679 207.389C78.3854 207.645 78.0327 207.846 77.6207 207.993C77.2088 208.135 76.733 208.206 76.1932 208.206ZM77.0597 206.118C77.5047 206.118 77.8977 206.03 78.2386 205.855C78.5795 205.675 78.8471 205.434 79.0412 205.131C79.2353 204.828 79.3324 204.484 79.3324 204.101V202.943C79.2377 203.005 79.1075 203.062 78.9418 203.114C78.7808 203.161 78.5985 203.206 78.3949 203.249C78.1913 203.286 77.9877 203.322 77.7841 203.355C77.5805 203.384 77.3958 203.41 77.2301 203.433C76.875 203.485 76.5649 203.568 76.2997 203.682C76.0346 203.795 75.8286 203.949 75.6818 204.143C75.535 204.333 75.4616 204.57 75.4616 204.854C75.4616 205.266 75.6108 205.58 75.9091 205.798C76.2121 206.011 76.5956 206.118 77.0597 206.118ZM93.7607 200.202L90.9908 200.372C90.9434 200.135 90.8416 199.922 90.6854 199.733C90.5291 199.539 90.3232 199.385 90.0675 199.271C89.8165 199.153 89.5159 199.094 89.1655 199.094C88.6967 199.094 88.3014 199.193 87.9794 199.392C87.6574 199.586 87.4964 199.847 87.4964 200.173C87.4964 200.434 87.6006 200.654 87.8089 200.834C88.0173 201.014 88.3748 201.158 88.8814 201.267L90.8558 201.665C91.9164 201.883 92.7071 202.233 93.228 202.716C93.7488 203.199 94.0092 203.833 94.0092 204.619C94.0092 205.334 93.7985 205.962 93.3771 206.501C92.9605 207.041 92.3875 207.463 91.6584 207.766C90.9339 208.064 90.0982 208.213 89.1513 208.213C87.7071 208.213 86.5566 207.912 85.6996 207.311C84.8473 206.705 84.3478 205.881 84.201 204.839L87.1768 204.683C87.2668 205.124 87.4846 205.46 87.8303 205.692C88.1759 205.919 88.6186 206.033 89.1584 206.033C89.6887 206.033 90.1148 205.931 90.4368 205.727C90.7635 205.519 90.9292 205.251 90.9339 204.925C90.9292 204.65 90.8132 204.425 90.5859 204.25C90.3587 204.07 90.0083 203.933 89.5348 203.838L87.6456 203.462C86.5803 203.249 85.7872 202.879 85.2663 202.354C84.7502 201.828 84.4922 201.158 84.4922 200.344C84.4922 199.643 84.6816 199.039 85.0604 198.533C85.4439 198.026 85.9813 197.635 86.6726 197.361C87.3686 197.086 88.183 196.949 89.1158 196.949C90.4936 196.949 91.5779 197.24 92.3686 197.822C93.1641 198.405 93.6281 199.198 93.7607 200.202ZM98.6559 204.861L98.663 201.232H99.1033L102.598 197.091H106.071L101.376 202.574H100.659L98.6559 204.861ZM95.9144 208V193.455H98.94V208H95.9144ZM102.733 208L99.5224 203.249L101.539 201.111L106.277 208H102.733ZM117.695 208L120.082 193.455H122.354L119.968 208H117.695ZM111.183 204.392L111.559 202.119H122.923L122.546 204.392H111.183ZM112.582 208L114.968 193.455H117.241L114.854 208H112.582ZM112.013 199.335L112.397 197.062H123.761L123.377 199.335H112.013ZM131.472 193.455V208H128.397V196.374H128.311L124.98 198.462V195.734L128.581 193.455H131.472Z" fill="black"/>
<path d="M60.7102 195.99V193.455H72.6562V195.99H68.2031V208H65.1634V195.99H60.7102ZM76.1932 208.206C75.4972 208.206 74.8769 208.085 74.3324 207.844C73.7879 207.598 73.357 207.235 73.0398 206.757C72.7273 206.274 72.571 205.673 72.571 204.953C72.571 204.347 72.6823 203.838 72.9048 203.426C73.1274 203.014 73.4304 202.683 73.8139 202.432C74.1974 202.181 74.633 201.991 75.1207 201.864C75.6132 201.736 76.1293 201.646 76.669 201.594C77.3035 201.527 77.8149 201.466 78.2031 201.409C78.5914 201.348 78.8731 201.258 79.0483 201.139C79.2235 201.021 79.3111 200.846 79.3111 200.614V200.571C79.3111 200.121 79.169 199.773 78.8849 199.527C78.6056 199.281 78.2079 199.158 77.6918 199.158C77.1473 199.158 76.714 199.278 76.392 199.52C76.0701 199.757 75.857 200.055 75.7528 200.415L72.9545 200.188C73.0966 199.525 73.3759 198.952 73.7926 198.469C74.2093 197.981 74.7467 197.607 75.4048 197.347C76.0677 197.081 76.8348 196.949 77.706 196.949C78.312 196.949 78.892 197.02 79.446 197.162C80.0047 197.304 80.4995 197.524 80.9304 197.822C81.366 198.121 81.7093 198.504 81.9602 198.973C82.2112 199.437 82.3366 199.993 82.3366 200.642V208H79.4673V206.487H79.3821C79.2069 206.828 78.9725 207.129 78.679 207.389C78.3854 207.645 78.0327 207.846 77.6207 207.993C77.2088 208.135 76.733 208.206 76.1932 208.206ZM77.0597 206.118C77.5047 206.118 77.8977 206.03 78.2386 205.855C78.5795 205.675 78.8471 205.434 79.0412 205.131C79.2353 204.828 79.3324 204.484 79.3324 204.101V202.943C79.2377 203.005 79.1075 203.062 78.9418 203.114C78.7808 203.161 78.5985 203.206 78.3949 203.249C78.1913 203.286 77.9877 203.322 77.7841 203.355C77.5805 203.384 77.3958 203.41 77.2301 203.433C76.875 203.485 76.5649 203.568 76.2997 203.682C76.0346 203.795 75.8286 203.949 75.6818 204.143C75.535 204.333 75.4616 204.57 75.4616 204.854C75.4616 205.266 75.6108 205.58 75.9091 205.798C76.2121 206.011 76.5956 206.118 77.0597 206.118ZM93.7607 200.202L90.9908 200.372C90.9434 200.135 90.8416 199.922 90.6854 199.733C90.5291 199.539 90.3232 199.385 90.0675 199.271C89.8165 199.153 89.5159 199.094 89.1655 199.094C88.6967 199.094 88.3014 199.193 87.9794 199.392C87.6574 199.586 87.4964 199.847 87.4964 200.173C87.4964 200.434 87.6006 200.654 87.8089 200.834C88.0173 201.014 88.3748 201.158 88.8814 201.267L90.8558 201.665C91.9164 201.883 92.7071 202.233 93.228 202.716C93.7488 203.199 94.0092 203.833 94.0092 204.619C94.0092 205.334 93.7985 205.962 93.3771 206.501C92.9605 207.041 92.3875 207.463 91.6584 207.766C90.9339 208.064 90.0982 208.213 89.1513 208.213C87.7071 208.213 86.5566 207.912 85.6996 207.311C84.8473 206.705 84.3478 205.881 84.201 204.839L87.1768 204.683C87.2668 205.124 87.4846 205.46 87.8303 205.692C88.1759 205.919 88.6186 206.033 89.1584 206.033C89.6887 206.033 90.1148 205.931 90.4368 205.727C90.7635 205.519 90.9292 205.251 90.9339 204.925C90.9292 204.65 90.8132 204.425 90.5859 204.25C90.3587 204.07 90.0083 203.933 89.5348 203.838L87.6456 203.462C86.5803 203.249 85.7872 202.879 85.2663 202.354C84.7502 201.828 84.4922 201.158 84.4922 200.344C84.4922 199.643 84.6816 199.039 85.0604 198.533C85.4439 198.026 85.9813 197.635 86.6726 197.361C87.3686 197.086 88.183 196.949 89.1158 196.949C90.4936 196.949 91.5779 197.24 92.3686 197.822C93.1641 198.405 93.6281 199.198 93.7607 200.202ZM98.6559 204.861L98.663 201.232H99.1033L102.598 197.091H106.071L101.376 202.574H100.659L98.6559 204.861ZM95.9144 208V193.455H98.94V208H95.9144ZM102.733 208L99.5224 203.249L101.539 201.111L106.277 208H102.733ZM117.695 208L120.082 193.455H122.354L119.968 208H117.695ZM111.183 204.392L111.559 202.119H122.923L122.546 204.392H111.183ZM112.582 208L114.968 193.455H117.241L114.854 208H112.582ZM112.013 199.335L112.397 197.062H123.761L123.377 199.335H112.013ZM131.472 193.455V208H128.397V196.374H128.311L124.98 198.462V195.734L128.581 193.455H131.472Z" fill="black"/>
<rect x="42" y="345" width="365" height="63" fill="#E8E8E8"/>
<rect x="42" y="82" width="365" height="63" fill="#BFBFBF"/>
<path d="M62.2642 123V108.455H72.0653V110.99H65.3395V114.456H71.5611V116.991H65.3395V120.464H72.0938V123H62.2642ZM77.479 116.693V123H74.4535V112.091H77.337V114.016H77.4648C77.7063 113.381 78.1112 112.879 78.6793 112.51C79.2475 112.136 79.9364 111.949 80.7461 111.949C81.5037 111.949 82.1642 112.115 82.7276 112.446C83.2911 112.777 83.729 113.251 84.0415 113.866C84.354 114.477 84.5103 115.206 84.5103 116.054V123H81.4847V116.594C81.4895 115.926 81.319 115.405 80.9734 115.031C80.6277 114.652 80.1519 114.463 79.5458 114.463C79.1386 114.463 78.7788 114.551 78.4663 114.726C78.1585 114.901 77.917 115.157 77.7418 115.493C77.5714 115.824 77.4838 116.224 77.479 116.693ZM92.6974 112.091V114.364H86.1278V112.091H92.6974ZM87.6193 109.477H90.6449V119.648C90.6449 119.927 90.6875 120.145 90.7727 120.301C90.858 120.453 90.9763 120.559 91.1278 120.621C91.2841 120.682 91.464 120.713 91.6676 120.713C91.8097 120.713 91.9517 120.701 92.0938 120.678C92.2358 120.649 92.3447 120.628 92.4205 120.614L92.8963 122.865C92.7448 122.912 92.5317 122.967 92.2571 123.028C91.9825 123.095 91.6487 123.135 91.2557 123.149C90.5265 123.178 89.8873 123.08 89.3381 122.858C88.7936 122.635 88.3698 122.29 88.0668 121.821C87.7637 121.352 87.6146 120.76 87.6193 120.045V109.477ZM99.5227 123.213C98.4006 123.213 97.4347 122.986 96.625 122.531C95.8201 122.072 95.1998 121.423 94.7642 120.585C94.3286 119.742 94.1108 118.746 94.1108 117.595C94.1108 116.473 94.3286 115.488 94.7642 114.641C95.1998 113.793 95.813 113.133 96.6037 112.659C97.3991 112.186 98.3319 111.949 99.402 111.949C100.122 111.949 100.792 112.065 101.412 112.297C102.037 112.524 102.581 112.867 103.045 113.327C103.514 113.786 103.879 114.364 104.139 115.06C104.4 115.751 104.53 116.561 104.53 117.489V118.32H95.3182V116.445H101.682C101.682 116.009 101.587 115.623 101.398 115.287C101.208 114.951 100.946 114.688 100.609 114.499C100.278 114.304 99.892 114.207 99.4517 114.207C98.9924 114.207 98.5852 114.314 98.2301 114.527C97.8797 114.735 97.6051 115.017 97.4062 115.372C97.2074 115.723 97.1056 116.113 97.1009 116.544V118.327C97.1009 118.866 97.2003 119.333 97.3991 119.726C97.6027 120.119 97.8892 120.422 98.2585 120.635C98.6278 120.848 99.0658 120.955 99.5724 120.955C99.9086 120.955 100.216 120.907 100.496 120.812C100.775 120.718 101.014 120.576 101.213 120.386C101.412 120.197 101.563 119.965 101.668 119.69L104.466 119.875C104.324 120.547 104.033 121.134 103.592 121.636C103.157 122.134 102.593 122.522 101.902 122.801C101.215 123.076 100.422 123.213 99.5227 123.213ZM106.504 123V112.091H109.438V113.994H109.551C109.75 113.317 110.084 112.806 110.553 112.46C111.021 112.11 111.561 111.935 112.172 111.935C112.323 111.935 112.487 111.944 112.662 111.963C112.837 111.982 112.991 112.008 113.124 112.041V114.726C112.982 114.683 112.785 114.645 112.534 114.612C112.283 114.579 112.054 114.562 111.845 114.562C111.4 114.562 111.002 114.66 110.652 114.854C110.306 115.043 110.032 115.308 109.828 115.649C109.629 115.99 109.53 116.383 109.53 116.828V123H106.504ZM121.185 127.091C120.801 127.091 120.441 127.06 120.105 126.999C119.774 126.942 119.499 126.868 119.281 126.778L119.963 124.52C120.318 124.629 120.638 124.688 120.922 124.697C121.211 124.707 121.459 124.641 121.668 124.499C121.881 124.357 122.054 124.115 122.186 123.774L122.364 123.312L118.45 112.091H121.632L123.891 120.102H124.004L126.284 112.091H129.487L125.247 124.179C125.044 124.766 124.767 125.277 124.416 125.713C124.071 126.153 123.633 126.492 123.102 126.729C122.572 126.97 121.933 127.091 121.185 127.091ZM135.613 123.213C134.51 123.213 133.556 122.979 132.751 122.51C131.951 122.036 131.333 121.378 130.897 120.536C130.461 119.688 130.244 118.705 130.244 117.588C130.244 116.461 130.461 115.476 130.897 114.634C131.333 113.786 131.951 113.128 132.751 112.659C133.556 112.186 134.51 111.949 135.613 111.949C136.716 111.949 137.668 112.186 138.468 112.659C139.273 113.128 139.893 113.786 140.329 114.634C140.764 115.476 140.982 116.461 140.982 117.588C140.982 118.705 140.764 119.688 140.329 120.536C139.893 121.378 139.273 122.036 138.468 122.51C137.668 122.979 136.716 123.213 135.613 123.213ZM135.627 120.869C136.129 120.869 136.548 120.727 136.884 120.443C137.22 120.154 137.474 119.761 137.644 119.264C137.819 118.767 137.907 118.201 137.907 117.567C137.907 116.932 137.819 116.366 137.644 115.869C137.474 115.372 137.22 114.979 136.884 114.69C136.548 114.402 136.129 114.257 135.627 114.257C135.121 114.257 134.694 114.402 134.349 114.69C134.008 114.979 133.75 115.372 133.575 115.869C133.404 116.366 133.319 116.932 133.319 117.567C133.319 118.201 133.404 118.767 133.575 119.264C133.75 119.761 134.008 120.154 134.349 120.443C134.694 120.727 135.121 120.869 135.627 120.869ZM149.945 118.355V112.091H152.971V123H150.066V121.018H149.952C149.706 121.658 149.297 122.171 148.724 122.56C148.156 122.948 147.462 123.142 146.643 123.142C145.914 123.142 145.272 122.976 144.718 122.645C144.164 122.313 143.731 121.842 143.418 121.232C143.111 120.621 142.954 119.889 142.95 119.037V112.091H145.975V118.497C145.98 119.141 146.153 119.65 146.494 120.024C146.835 120.398 147.291 120.585 147.864 120.585C148.229 120.585 148.57 120.502 148.887 120.337C149.204 120.166 149.46 119.915 149.654 119.584C149.853 119.252 149.95 118.843 149.945 118.355ZM155.391 123V112.091H158.324V113.994H158.438C158.637 113.317 158.971 112.806 159.439 112.46C159.908 112.11 160.448 111.935 161.059 111.935C161.21 111.935 161.373 111.944 161.549 111.963C161.724 111.982 161.878 112.008 162.01 112.041V114.726C161.868 114.683 161.672 114.645 161.421 114.612C161.17 114.579 160.94 114.562 160.732 114.562C160.287 114.562 159.889 114.66 159.539 114.854C159.193 115.043 158.918 115.308 158.715 115.649C158.516 115.99 158.417 116.383 158.417 116.828V123H155.391ZM174.006 112.091V114.364H167.436V112.091H174.006ZM168.928 109.477H171.953V119.648C171.953 119.927 171.996 120.145 172.081 120.301C172.167 120.453 172.285 120.559 172.436 120.621C172.593 120.682 172.773 120.713 172.976 120.713C173.118 120.713 173.26 120.701 173.402 120.678C173.544 120.649 173.653 120.628 173.729 120.614L174.205 122.865C174.053 122.912 173.84 122.967 173.566 123.028C173.291 123.095 172.957 123.135 172.564 123.149C171.835 123.178 171.196 123.08 170.647 122.858C170.102 122.635 169.678 122.29 169.375 121.821C169.072 121.352 168.923 120.76 168.928 120.045V109.477ZM179.088 123.206C178.392 123.206 177.771 123.085 177.227 122.844C176.682 122.598 176.252 122.235 175.934 121.757C175.622 121.274 175.466 120.673 175.466 119.953C175.466 119.347 175.577 118.838 175.799 118.426C176.022 118.014 176.325 117.683 176.708 117.432C177.092 117.181 177.528 116.991 178.015 116.864C178.508 116.736 179.024 116.646 179.564 116.594C180.198 116.527 180.709 116.466 181.098 116.409C181.486 116.348 181.768 116.258 181.943 116.139C182.118 116.021 182.206 115.846 182.206 115.614V115.571C182.206 115.121 182.064 114.773 181.779 114.527C181.5 114.281 181.102 114.158 180.586 114.158C180.042 114.158 179.609 114.278 179.287 114.52C178.965 114.757 178.752 115.055 178.647 115.415L175.849 115.188C175.991 114.525 176.27 113.952 176.687 113.469C177.104 112.981 177.641 112.607 178.299 112.347C178.962 112.081 179.729 111.949 180.6 111.949C181.207 111.949 181.787 112.02 182.341 112.162C182.899 112.304 183.394 112.524 183.825 112.822C184.261 113.121 184.604 113.504 184.855 113.973C185.106 114.437 185.231 114.993 185.231 115.642V123H182.362V121.487H182.277C182.101 121.828 181.867 122.129 181.574 122.389C181.28 122.645 180.927 122.846 180.515 122.993C180.103 123.135 179.627 123.206 179.088 123.206ZM179.954 121.118C180.399 121.118 180.792 121.03 181.133 120.855C181.474 120.675 181.742 120.434 181.936 120.131C182.13 119.828 182.227 119.484 182.227 119.101V117.943C182.132 118.005 182.002 118.062 181.836 118.114C181.675 118.161 181.493 118.206 181.289 118.249C181.086 118.286 180.882 118.322 180.679 118.355C180.475 118.384 180.29 118.41 180.125 118.433C179.77 118.485 179.459 118.568 179.194 118.682C178.929 118.795 178.723 118.949 178.576 119.143C178.43 119.333 178.356 119.57 178.356 119.854C178.356 120.266 178.505 120.58 178.804 120.798C179.107 121.011 179.49 121.118 179.954 121.118ZM196.655 115.202L193.885 115.372C193.838 115.135 193.736 114.922 193.58 114.733C193.424 114.539 193.218 114.385 192.962 114.271C192.711 114.153 192.41 114.094 192.06 114.094C191.591 114.094 191.196 114.193 190.874 114.392C190.552 114.586 190.391 114.847 190.391 115.173C190.391 115.434 190.495 115.654 190.703 115.834C190.912 116.014 191.269 116.158 191.776 116.267L193.75 116.665C194.811 116.883 195.602 117.233 196.123 117.716C196.643 118.199 196.904 118.833 196.904 119.619C196.904 120.334 196.693 120.962 196.272 121.501C195.855 122.041 195.282 122.463 194.553 122.766C193.828 123.064 192.993 123.213 192.046 123.213C190.602 123.213 189.451 122.912 188.594 122.311C187.742 121.705 187.242 120.881 187.096 119.839L190.071 119.683C190.161 120.124 190.379 120.46 190.725 120.692C191.07 120.919 191.513 121.033 192.053 121.033C192.583 121.033 193.009 120.931 193.331 120.727C193.658 120.519 193.824 120.251 193.828 119.925C193.824 119.65 193.708 119.425 193.48 119.25C193.253 119.07 192.903 118.933 192.429 118.838L190.54 118.462C189.475 118.249 188.682 117.879 188.161 117.354C187.645 116.828 187.387 116.158 187.387 115.344C187.387 114.643 187.576 114.039 187.955 113.533C188.338 113.026 188.876 112.635 189.567 112.361C190.263 112.086 191.078 111.949 192.01 111.949C193.388 111.949 194.472 112.24 195.263 112.822C196.059 113.405 196.523 114.198 196.655 115.202ZM201.55 119.861L201.558 116.232H201.998L205.492 112.091H208.965L204.271 117.574H203.553L201.55 119.861ZM198.809 123V108.455H201.835V123H198.809ZM205.627 123L202.417 118.249L204.434 116.111L209.171 123H205.627ZM212.218 123.185C211.749 123.185 211.347 123.019 211.011 122.688C210.679 122.351 210.513 121.949 210.513 121.48C210.513 121.016 210.679 120.618 211.011 120.287C211.347 119.955 211.749 119.79 212.218 119.79C212.673 119.79 213.07 119.955 213.411 120.287C213.752 120.618 213.923 121.016 213.923 121.48C213.923 121.793 213.842 122.079 213.681 122.339C213.525 122.595 213.319 122.801 213.063 122.957C212.808 123.109 212.526 123.185 212.218 123.185ZM212.218 115.543C211.749 115.543 211.347 115.377 211.011 115.045C210.679 114.714 210.513 114.312 210.513 113.838C210.513 113.374 210.679 112.979 211.011 112.652C211.347 112.321 211.749 112.155 212.218 112.155C212.673 112.155 213.07 112.321 213.411 112.652C213.752 112.979 213.923 113.374 213.923 113.838C213.923 114.155 213.842 114.444 213.681 114.705C213.525 114.96 213.319 115.164 213.063 115.315C212.808 115.467 212.526 115.543 212.218 115.543Z" fill="#E0E0E0"/>
<rect x="42" y="257" width="365" height="63" fill="#E8E8E8"/>
<path d="M349 170H407V233H349V170Z" fill="#FF3C3C"/>
<path d="M349 258H407V321H349V258Z" fill="#FF3C3C"/>
<path d="M349 345.5H407V408.5H349V345.5Z" fill="#FF3C3C"/>
<path d="M60.7102 284.99V282.455H72.6562V284.99H68.2031V297H65.1634V284.99H60.7102ZM76.1932 297.206C75.4972 297.206 74.8769 297.085 74.3324 296.844C73.7879 296.598 73.357 296.235 73.0398 295.757C72.7273 295.274 72.571 294.673 72.571 293.953C72.571 293.347 72.6823 292.838 72.9048 292.426C73.1274 292.014 73.4304 291.683 73.8139 291.432C74.1974 291.181 74.633 290.991 75.1207 290.864C75.6132 290.736 76.1293 290.646 76.669 290.594C77.3035 290.527 77.8149 290.466 78.2031 290.409C78.5914 290.348 78.8731 290.258 79.0483 290.139C79.2235 290.021 79.3111 289.846 79.3111 289.614V289.571C79.3111 289.121 79.169 288.773 78.8849 288.527C78.6056 288.281 78.2079 288.158 77.6918 288.158C77.1473 288.158 76.714 288.278 76.392 288.52C76.0701 288.757 75.857 289.055 75.7528 289.415L72.9545 289.188C73.0966 288.525 73.3759 287.952 73.7926 287.469C74.2093 286.981 74.7467 286.607 75.4048 286.347C76.0677 286.081 76.8348 285.949 77.706 285.949C78.312 285.949 78.892 286.02 79.446 286.162C80.0047 286.304 80.4995 286.524 80.9304 286.822C81.366 287.121 81.7093 287.504 81.9602 287.973C82.2112 288.437 82.3366 288.993 82.3366 289.642V297H79.4673V295.487H79.3821C79.2069 295.828 78.9725 296.129 78.679 296.389C78.3854 296.645 78.0327 296.846 77.6207 296.993C77.2088 297.135 76.733 297.206 76.1932 297.206ZM77.0597 295.118C77.5047 295.118 77.8977 295.03 78.2386 294.855C78.5795 294.675 78.8471 294.434 79.0412 294.131C79.2353 293.828 79.3324 293.484 79.3324 293.101V291.943C79.2377 292.005 79.1075 292.062 78.9418 292.114C78.7808 292.161 78.5985 292.206 78.3949 292.249C78.1913 292.286 77.9877 292.322 77.7841 292.355C77.5805 292.384 77.3958 292.41 77.2301 292.433C76.875 292.485 76.5649 292.568 76.2997 292.682C76.0346 292.795 75.8286 292.949 75.6818 293.143C75.535 293.333 75.4616 293.57 75.4616 293.854C75.4616 294.266 75.6108 294.58 75.9091 294.798C76.2121 295.011 76.5956 295.118 77.0597 295.118ZM93.7607 289.202L90.9908 289.372C90.9434 289.135 90.8416 288.922 90.6854 288.733C90.5291 288.539 90.3232 288.385 90.0675 288.271C89.8165 288.153 89.5159 288.094 89.1655 288.094C88.6967 288.094 88.3014 288.193 87.9794 288.392C87.6574 288.586 87.4964 288.847 87.4964 289.173C87.4964 289.434 87.6006 289.654 87.8089 289.834C88.0173 290.014 88.3748 290.158 88.8814 290.267L90.8558 290.665C91.9164 290.883 92.7071 291.233 93.228 291.716C93.7488 292.199 94.0092 292.833 94.0092 293.619C94.0092 294.334 93.7985 294.962 93.3771 295.501C92.9605 296.041 92.3875 296.463 91.6584 296.766C90.9339 297.064 90.0982 297.213 89.1513 297.213C87.7071 297.213 86.5566 296.912 85.6996 296.311C84.8473 295.705 84.3478 294.881 84.201 293.839L87.1768 293.683C87.2668 294.124 87.4846 294.46 87.8303 294.692C88.1759 294.919 88.6186 295.033 89.1584 295.033C89.6887 295.033 90.1148 294.931 90.4368 294.727C90.7635 294.519 90.9292 294.251 90.9339 293.925C90.9292 293.65 90.8132 293.425 90.5859 293.25C90.3587 293.07 90.0083 292.933 89.5348 292.838L87.6456 292.462C86.5803 292.249 85.7872 291.879 85.2663 291.354C84.7502 290.828 84.4922 290.158 84.4922 289.344C84.4922 288.643 84.6816 288.039 85.0604 287.533C85.4439 287.026 85.9813 286.635 86.6726 286.361C87.3686 286.086 88.183 285.949 89.1158 285.949C90.4936 285.949 91.5779 286.24 92.3686 286.822C93.1641 287.405 93.6281 288.198 93.7607 289.202ZM98.6559 293.861L98.663 290.232H99.1033L102.598 286.091H106.071L101.376 291.574H100.659L98.6559 293.861ZM95.9144 297V282.455H98.94V297H95.9144ZM102.733 297L99.5224 292.249L101.539 290.111L106.277 297H102.733ZM117.695 297L120.082 282.455H122.354L119.968 297H117.695ZM111.183 293.392L111.559 291.119H122.923L122.546 293.392H111.183ZM112.582 297L114.968 282.455H117.241L114.854 297H112.582ZM112.013 288.335L112.397 286.062H123.761L123.377 288.335H112.013ZM125.144 297V294.784L130.321 289.99C130.762 289.564 131.131 289.18 131.429 288.839C131.732 288.499 131.962 288.165 132.118 287.838C132.275 287.507 132.353 287.149 132.353 286.766C132.353 286.339 132.256 285.973 132.061 285.665C131.867 285.352 131.602 285.113 131.266 284.947C130.93 284.777 130.549 284.692 130.123 284.692C129.677 284.692 129.289 284.782 128.958 284.962C128.626 285.142 128.371 285.4 128.191 285.736C128.011 286.072 127.921 286.472 127.921 286.936H125.002C125.002 285.984 125.217 285.158 125.648 284.457C126.079 283.757 126.683 283.214 127.459 282.831C128.236 282.447 129.131 282.256 130.144 282.256C131.185 282.256 132.092 282.44 132.864 282.81C133.641 283.174 134.244 283.681 134.675 284.33C135.106 284.978 135.321 285.722 135.321 286.56C135.321 287.109 135.212 287.651 134.995 288.186C134.782 288.721 134.4 289.315 133.851 289.969C133.302 290.617 132.528 291.396 131.529 292.305L129.405 294.386V294.486H135.513V297H125.144Z" fill="black"/>
<path d="M60.7102 284.99V282.455H72.6562V284.99H68.2031V297H65.1634V284.99H60.7102ZM76.1932 297.206C75.4972 297.206 74.8769 297.085 74.3324 296.844C73.7879 296.598 73.357 296.235 73.0398 295.757C72.7273 295.274 72.571 294.673 72.571 293.953C72.571 293.347 72.6823 292.838 72.9048 292.426C73.1274 292.014 73.4304 291.683 73.8139 291.432C74.1974 291.181 74.633 290.991 75.1207 290.864C75.6132 290.736 76.1293 290.646 76.669 290.594C77.3035 290.527 77.8149 290.466 78.2031 290.409C78.5914 290.348 78.8731 290.258 79.0483 290.139C79.2235 290.021 79.3111 289.846 79.3111 289.614V289.571C79.3111 289.121 79.169 288.773 78.8849 288.527C78.6056 288.281 78.2079 288.158 77.6918 288.158C77.1473 288.158 76.714 288.278 76.392 288.52C76.0701 288.757 75.857 289.055 75.7528 289.415L72.9545 289.188C73.0966 288.525 73.3759 287.952 73.7926 287.469C74.2093 286.981 74.7467 286.607 75.4048 286.347C76.0677 286.081 76.8348 285.949 77.706 285.949C78.312 285.949 78.892 286.02 79.446 286.162C80.0047 286.304 80.4995 286.524 80.9304 286.822C81.366 287.121 81.7093 287.504 81.9602 287.973C82.2112 288.437 82.3366 288.993 82.3366 289.642V297H79.4673V295.487H79.3821C79.2069 295.828 78.9725 296.129 78.679 296.389C78.3854 296.645 78.0327 296.846 77.6207 296.993C77.2088 297.135 76.733 297.206 76.1932 297.206ZM77.0597 295.118C77.5047 295.118 77.8977 295.03 78.2386 294.855C78.5795 294.675 78.8471 294.434 79.0412 294.131C79.2353 293.828 79.3324 293.484 79.3324 293.101V291.943C79.2377 292.005 79.1075 292.062 78.9418 292.114C78.7808 292.161 78.5985 292.206 78.3949 292.249C78.1913 292.286 77.9877 292.322 77.7841 292.355C77.5805 292.384 77.3958 292.41 77.2301 292.433C76.875 292.485 76.5649 292.568 76.2997 292.682C76.0346 292.795 75.8286 292.949 75.6818 293.143C75.535 293.333 75.4616 293.57 75.4616 293.854C75.4616 294.266 75.6108 294.58 75.9091 294.798C76.2121 295.011 76.5956 295.118 77.0597 295.118ZM93.7607 289.202L90.9908 289.372C90.9434 289.135 90.8416 288.922 90.6854 288.733C90.5291 288.539 90.3232 288.385 90.0675 288.271C89.8165 288.153 89.5159 288.094 89.1655 288.094C88.6967 288.094 88.3014 288.193 87.9794 288.392C87.6574 288.586 87.4964 288.847 87.4964 289.173C87.4964 289.434 87.6006 289.654 87.8089 289.834C88.0173 290.014 88.3748 290.158 88.8814 290.267L90.8558 290.665C91.9164 290.883 92.7071 291.233 93.228 291.716C93.7488 292.199 94.0092 292.833 94.0092 293.619C94.0092 294.334 93.7985 294.962 93.3771 295.501C92.9605 296.041 92.3875 296.463 91.6584 296.766C90.9339 297.064 90.0982 297.213 89.1513 297.213C87.7071 297.213 86.5566 296.912 85.6996 296.311C84.8473 295.705 84.3478 294.881 84.201 293.839L87.1768 293.683C87.2668 294.124 87.4846 294.46 87.8303 294.692C88.1759 294.919 88.6186 295.033 89.1584 295.033C89.6887 295.033 90.1148 294.931 90.4368 294.727C90.7635 294.519 90.9292 294.251 90.9339 293.925C90.9292 293.65 90.8132 293.425 90.5859 293.25C90.3587 293.07 90.0083 292.933 89.5348 292.838L87.6456 292.462C86.5803 292.249 85.7872 291.879 85.2663 291.354C84.7502 290.828 84.4922 290.158 84.4922 289.344C84.4922 288.643 84.6816 288.039 85.0604 287.533C85.4439 287.026 85.9813 286.635 86.6726 286.361C87.3686 286.086 88.183 285.949 89.1158 285.949C90.4936 285.949 91.5779 286.24 92.3686 286.822C93.1641 287.405 93.6281 288.198 93.7607 289.202ZM98.6559 293.861L98.663 290.232H99.1033L102.598 286.091H106.071L101.376 291.574H100.659L98.6559 293.861ZM95.9144 297V282.455H98.94V297H95.9144ZM102.733 297L99.5224 292.249L101.539 290.111L106.277 297H102.733ZM117.695 297L120.082 282.455H122.354L119.968 297H117.695ZM111.183 293.392L111.559 291.119H122.923L122.546 293.392H111.183ZM112.582 297L114.968 282.455H117.241L114.854 297H112.582ZM112.013 288.335L112.397 286.062H123.761L123.377 288.335H112.013ZM125.144 297V294.784L130.321 289.99C130.762 289.564 131.131 289.18 131.429 288.839C131.732 288.499 131.962 288.165 132.118 287.838C132.275 287.507 132.353 287.149 132.353 286.766C132.353 286.339 132.256 285.973 132.061 285.665C131.867 285.352 131.602 285.113 131.266 284.947C130.93 284.777 130.549 284.692 130.123 284.692C129.677 284.692 129.289 284.782 128.958 284.962C128.626 285.142 128.371 285.4 128.191 285.736C128.011 286.072 127.921 286.472 127.921 286.936H125.002C125.002 285.984 125.217 285.158 125.648 284.457C126.079 283.757 126.683 283.214 127.459 282.831C128.236 282.447 129.131 282.256 130.144 282.256C131.185 282.256 132.092 282.44 132.864 282.81C133.641 283.174 134.244 283.681 134.675 284.33C135.106 284.978 135.321 285.722 135.321 286.56C135.321 287.109 135.212 287.651 134.995 288.186C134.782 288.721 134.4 289.315 133.851 289.969C133.302 290.617 132.528 291.396 131.529 292.305L129.405 294.386V294.486H135.513V297H125.144Z" fill="black"/>
<path d="M60.7102 369.99V367.455H72.6562V369.99H68.2031V382H65.1634V369.99H60.7102ZM76.1932 382.206C75.4972 382.206 74.8769 382.085 74.3324 381.844C73.7879 381.598 73.357 381.235 73.0398 380.757C72.7273 380.274 72.571 379.673 72.571 378.953C72.571 378.347 72.6823 377.838 72.9048 377.426C73.1274 377.014 73.4304 376.683 73.8139 376.432C74.1974 376.181 74.633 375.991 75.1207 375.864C75.6132 375.736 76.1293 375.646 76.669 375.594C77.3035 375.527 77.8149 375.466 78.2031 375.409C78.5914 375.348 78.8731 375.258 79.0483 375.139C79.2235 375.021 79.3111 374.846 79.3111 374.614V374.571C79.3111 374.121 79.169 373.773 78.8849 373.527C78.6056 373.281 78.2079 373.158 77.6918 373.158C77.1473 373.158 76.714 373.278 76.392 373.52C76.0701 373.757 75.857 374.055 75.7528 374.415L72.9545 374.188C73.0966 373.525 73.3759 372.952 73.7926 372.469C74.2093 371.981 74.7467 371.607 75.4048 371.347C76.0677 371.081 76.8348 370.949 77.706 370.949C78.312 370.949 78.892 371.02 79.446 371.162C80.0047 371.304 80.4995 371.524 80.9304 371.822C81.366 372.121 81.7093 372.504 81.9602 372.973C82.2112 373.437 82.3366 373.993 82.3366 374.642V382H79.4673V380.487H79.3821C79.2069 380.828 78.9725 381.129 78.679 381.389C78.3854 381.645 78.0327 381.846 77.6207 381.993C77.2088 382.135 76.733 382.206 76.1932 382.206ZM77.0597 380.118C77.5047 380.118 77.8977 380.03 78.2386 379.855C78.5795 379.675 78.8471 379.434 79.0412 379.131C79.2353 378.828 79.3324 378.484 79.3324 378.101V376.943C79.2377 377.005 79.1075 377.062 78.9418 377.114C78.7808 377.161 78.5985 377.206 78.3949 377.249C78.1913 377.286 77.9877 377.322 77.7841 377.355C77.5805 377.384 77.3958 377.41 77.2301 377.433C76.875 377.485 76.5649 377.568 76.2997 377.682C76.0346 377.795 75.8286 377.949 75.6818 378.143C75.535 378.333 75.4616 378.57 75.4616 378.854C75.4616 379.266 75.6108 379.58 75.9091 379.798C76.2121 380.011 76.5956 380.118 77.0597 380.118ZM93.7607 374.202L90.9908 374.372C90.9434 374.135 90.8416 373.922 90.6854 373.733C90.5291 373.539 90.3232 373.385 90.0675 373.271C89.8165 373.153 89.5159 373.094 89.1655 373.094C88.6967 373.094 88.3014 373.193 87.9794 373.392C87.6574 373.586 87.4964 373.847 87.4964 374.173C87.4964 374.434 87.6006 374.654 87.8089 374.834C88.0173 375.014 88.3748 375.158 88.8814 375.267L90.8558 375.665C91.9164 375.883 92.7071 376.233 93.228 376.716C93.7488 377.199 94.0092 377.833 94.0092 378.619C94.0092 379.334 93.7985 379.962 93.3771 380.501C92.9605 381.041 92.3875 381.463 91.6584 381.766C90.9339 382.064 90.0982 382.213 89.1513 382.213C87.7071 382.213 86.5566 381.912 85.6996 381.311C84.8473 380.705 84.3478 379.881 84.201 378.839L87.1768 378.683C87.2668 379.124 87.4846 379.46 87.8303 379.692C88.1759 379.919 88.6186 380.033 89.1584 380.033C89.6887 380.033 90.1148 379.931 90.4368 379.727C90.7635 379.519 90.9292 379.251 90.9339 378.925C90.9292 378.65 90.8132 378.425 90.5859 378.25C90.3587 378.07 90.0083 377.933 89.5348 377.838L87.6456 377.462C86.5803 377.249 85.7872 376.879 85.2663 376.354C84.7502 375.828 84.4922 375.158 84.4922 374.344C84.4922 373.643 84.6816 373.039 85.0604 372.533C85.4439 372.026 85.9813 371.635 86.6726 371.361C87.3686 371.086 88.183 370.949 89.1158 370.949C90.4936 370.949 91.5779 371.24 92.3686 371.822C93.1641 372.405 93.6281 373.198 93.7607 374.202ZM98.6559 378.861L98.663 375.232H99.1033L102.598 371.091H106.071L101.376 376.574H100.659L98.6559 378.861ZM95.9144 382V367.455H98.94V382H95.9144ZM102.733 382L99.5224 377.249L101.539 375.111L106.277 382H102.733ZM117.695 382L120.082 367.455H122.354L119.968 382H117.695ZM111.183 378.392L111.559 376.119H122.923L122.546 378.392H111.183ZM112.582 382L114.968 367.455H117.241L114.854 382H112.582ZM112.013 373.335L112.397 371.062H123.761L123.377 373.335H112.013ZM130.52 382.199C129.46 382.199 128.515 382.017 127.686 381.652C126.863 381.283 126.212 380.776 125.733 380.132C125.26 379.483 125.016 378.735 125.002 377.888H128.098C128.117 378.243 128.233 378.555 128.446 378.825C128.664 379.09 128.953 379.296 129.313 379.443C129.673 379.59 130.078 379.663 130.527 379.663C130.996 379.663 131.41 379.58 131.77 379.415C132.13 379.249 132.412 379.019 132.615 378.726C132.819 378.432 132.921 378.094 132.921 377.71C132.921 377.322 132.812 376.979 132.594 376.68C132.381 376.377 132.073 376.141 131.671 375.97C131.273 375.8 130.8 375.714 130.25 375.714H128.894V373.456H130.25C130.714 373.456 131.124 373.375 131.479 373.214C131.839 373.054 132.118 372.831 132.317 372.547C132.516 372.258 132.615 371.922 132.615 371.538C132.615 371.174 132.528 370.854 132.353 370.58C132.182 370.3 131.941 370.082 131.628 369.926C131.32 369.77 130.961 369.692 130.549 369.692C130.132 369.692 129.751 369.768 129.405 369.919C129.06 370.066 128.783 370.277 128.574 370.551C128.366 370.826 128.255 371.148 128.24 371.517H125.293C125.307 370.679 125.546 369.94 126.01 369.301C126.474 368.662 127.099 368.162 127.885 367.803C128.676 367.438 129.569 367.256 130.563 367.256C131.567 367.256 132.445 367.438 133.198 367.803C133.951 368.167 134.535 368.66 134.952 369.28C135.373 369.895 135.582 370.587 135.577 371.354C135.582 372.168 135.328 372.848 134.817 373.392C134.31 373.937 133.65 374.282 132.836 374.429V374.543C133.906 374.68 134.72 375.052 135.279 375.658C135.842 376.259 136.122 377.012 136.117 377.916C136.122 378.745 135.882 379.481 135.4 380.125C134.921 380.769 134.261 381.276 133.418 381.645C132.575 382.014 131.609 382.199 130.52 382.199Z" fill="black"/>
<path d="M60.7102 369.99V367.455H72.6562V369.99H68.2031V382H65.1634V369.99H60.7102ZM76.1932 382.206C75.4972 382.206 74.8769 382.085 74.3324 381.844C73.7879 381.598 73.357 381.235 73.0398 380.757C72.7273 380.274 72.571 379.673 72.571 378.953C72.571 378.347 72.6823 377.838 72.9048 377.426C73.1274 377.014 73.4304 376.683 73.8139 376.432C74.1974 376.181 74.633 375.991 75.1207 375.864C75.6132 375.736 76.1293 375.646 76.669 375.594C77.3035 375.527 77.8149 375.466 78.2031 375.409C78.5914 375.348 78.8731 375.258 79.0483 375.139C79.2235 375.021 79.3111 374.846 79.3111 374.614V374.571C79.3111 374.121 79.169 373.773 78.8849 373.527C78.6056 373.281 78.2079 373.158 77.6918 373.158C77.1473 373.158 76.714 373.278 76.392 373.52C76.0701 373.757 75.857 374.055 75.7528 374.415L72.9545 374.188C73.0966 373.525 73.3759 372.952 73.7926 372.469C74.2093 371.981 74.7467 371.607 75.4048 371.347C76.0677 371.081 76.8348 370.949 77.706 370.949C78.312 370.949 78.892 371.02 79.446 371.162C80.0047 371.304 80.4995 371.524 80.9304 371.822C81.366 372.121 81.7093 372.504 81.9602 372.973C82.2112 373.437 82.3366 373.993 82.3366 374.642V382H79.4673V380.487H79.3821C79.2069 380.828 78.9725 381.129 78.679 381.389C78.3854 381.645 78.0327 381.846 77.6207 381.993C77.2088 382.135 76.733 382.206 76.1932 382.206ZM77.0597 380.118C77.5047 380.118 77.8977 380.03 78.2386 379.855C78.5795 379.675 78.8471 379.434 79.0412 379.131C79.2353 378.828 79.3324 378.484 79.3324 378.101V376.943C79.2377 377.005 79.1075 377.062 78.9418 377.114C78.7808 377.161 78.5985 377.206 78.3949 377.249C78.1913 377.286 77.9877 377.322 77.7841 377.355C77.5805 377.384 77.3958 377.41 77.2301 377.433C76.875 377.485 76.5649 377.568 76.2997 377.682C76.0346 377.795 75.8286 377.949 75.6818 378.143C75.535 378.333 75.4616 378.57 75.4616 378.854C75.4616 379.266 75.6108 379.58 75.9091 379.798C76.2121 380.011 76.5956 380.118 77.0597 380.118ZM93.7607 374.202L90.9908 374.372C90.9434 374.135 90.8416 373.922 90.6854 373.733C90.5291 373.539 90.3232 373.385 90.0675 373.271C89.8165 373.153 89.5159 373.094 89.1655 373.094C88.6967 373.094 88.3014 373.193 87.9794 373.392C87.6574 373.586 87.4964 373.847 87.4964 374.173C87.4964 374.434 87.6006 374.654 87.8089 374.834C88.0173 375.014 88.3748 375.158 88.8814 375.267L90.8558 375.665C91.9164 375.883 92.7071 376.233 93.228 376.716C93.7488 377.199 94.0092 377.833 94.0092 378.619C94.0092 379.334 93.7985 379.962 93.3771 380.501C92.9605 381.041 92.3875 381.463 91.6584 381.766C90.9339 382.064 90.0982 382.213 89.1513 382.213C87.7071 382.213 86.5566 381.912 85.6996 381.311C84.8473 380.705 84.3478 379.881 84.201 378.839L87.1768 378.683C87.2668 379.124 87.4846 379.46 87.8303 379.692C88.1759 379.919 88.6186 380.033 89.1584 380.033C89.6887 380.033 90.1148 379.931 90.4368 379.727C90.7635 379.519 90.9292 379.251 90.9339 378.925C90.9292 378.65 90.8132 378.425 90.5859 378.25C90.3587 378.07 90.0083 377.933 89.5348 377.838L87.6456 377.462C86.5803 377.249 85.7872 376.879 85.2663 376.354C84.7502 375.828 84.4922 375.158 84.4922 374.344C84.4922 373.643 84.6816 373.039 85.0604 372.533C85.4439 372.026 85.9813 371.635 86.6726 371.361C87.3686 371.086 88.183 370.949 89.1158 370.949C90.4936 370.949 91.5779 371.24 92.3686 371.822C93.1641 372.405 93.6281 373.198 93.7607 374.202ZM98.6559 378.861L98.663 375.232H99.1033L102.598 371.091H106.071L101.376 376.574H100.659L98.6559 378.861ZM95.9144 382V367.455H98.94V382H95.9144ZM102.733 382L99.5224 377.249L101.539 375.111L106.277 382H102.733ZM117.695 382L120.082 367.455H122.354L119.968 382H117.695ZM111.183 378.392L111.559 376.119H122.923L122.546 378.392H111.183ZM112.582 382L114.968 367.455H117.241L114.854 382H112.582ZM112.013 373.335L112.397 371.062H123.761L123.377 373.335H112.013ZM130.52 382.199C129.46 382.199 128.515 382.017 127.686 381.652C126.863 381.283 126.212 380.776 125.733 380.132C125.26 379.483 125.016 378.735 125.002 377.888H128.098C128.117 378.243 128.233 378.555 128.446 378.825C128.664 379.09 128.953 379.296 129.313 379.443C129.673 379.59 130.078 379.663 130.527 379.663C130.996 379.663 131.41 379.58 131.77 379.415C132.13 379.249 132.412 379.019 132.615 378.726C132.819 378.432 132.921 378.094 132.921 377.71C132.921 377.322 132.812 376.979 132.594 376.68C132.381 376.377 132.073 376.141 131.671 375.97C131.273 375.8 130.8 375.714 130.25 375.714H128.894V373.456H130.25C130.714 373.456 131.124 373.375 131.479 373.214C131.839 373.054 132.118 372.831 132.317 372.547C132.516 372.258 132.615 371.922 132.615 371.538C132.615 371.174 132.528 370.854 132.353 370.58C132.182 370.3 131.941 370.082 131.628 369.926C131.32 369.77 130.961 369.692 130.549 369.692C130.132 369.692 129.751 369.768 129.405 369.919C129.06 370.066 128.783 370.277 128.574 370.551C128.366 370.826 128.255 371.148 128.24 371.517H125.293C125.307 370.679 125.546 369.94 126.01 369.301C126.474 368.662 127.099 368.162 127.885 367.803C128.676 367.438 129.569 367.256 130.563 367.256C131.567 367.256 132.445 367.438 133.198 367.803C133.951 368.167 134.535 368.66 134.952 369.28C135.373 369.895 135.582 370.587 135.577 371.354C135.582 372.168 135.328 372.848 134.817 373.392C134.31 373.937 133.65 374.282 132.836 374.429V374.543C133.906 374.68 134.72 375.052 135.279 375.658C135.842 376.259 136.122 377.012 136.117 377.916C136.122 378.745 135.882 379.481 135.4 380.125C134.921 380.769 134.261 381.276 133.418 381.645C132.575 382.014 131.609 382.199 130.52 382.199Z" fill="black"/>
<line x1="366.383" y1="188.679" x2="392.383" y2="219.679" stroke="white"/>
<line x1="365.617" y1="219.679" x2="391.617" y2="188.679" stroke="white"/>
<line x1="366.383" y1="364.679" x2="392.383" y2="395.679" stroke="white"/>
<line x1="365.617" y1="395.679" x2="391.617" y2="364.679" stroke="white"/>
<line x1="366.383" y1="277.679" x2="392.383" y2="308.679" stroke="white"/>
<line x1="365.617" y1="308.679" x2="391.617" y2="277.679" stroke="white"/>
<rect x="337" y="82" width="70" height="63" fill="#C637FF"/>
<line x1="372.5" y1="104" x2="372.5" y2="128" stroke="white"/>
<line x1="359" y1="115.5" x2="385" y2="115.5" stroke="white"/>
<path d="M42.4602 442.909H44.2756L47.9062 449.02H48.0597L51.6903 442.909H53.5057L48.7756 450.605V456H47.1903V450.605L42.4602 442.909ZM57.9513 456.205C57.065 456.205 56.2873 455.994 55.6183 455.572C54.9535 455.15 54.4336 454.56 54.0586 453.801C53.6879 453.043 53.5025 452.156 53.5025 451.142C53.5025 450.119 53.6879 449.227 54.0586 448.464C54.4336 447.701 54.9535 447.109 55.6183 446.687C56.2873 446.265 57.065 446.054 57.9513 446.054C58.8377 446.054 59.6133 446.265 60.2781 446.687C60.9471 447.109 61.467 447.701 61.8377 448.464C62.2127 449.227 62.4002 450.119 62.4002 451.142C62.4002 452.156 62.2127 453.043 61.8377 453.801C61.467 454.56 60.9471 455.15 60.2781 455.572C59.6133 455.994 58.8377 456.205 57.9513 456.205ZM57.9513 454.849C58.6246 454.849 59.1786 454.677 59.6133 454.332C60.0479 453.987 60.3697 453.533 60.5785 452.97C60.7873 452.408 60.8917 451.798 60.8917 451.142C60.8917 450.486 60.7873 449.874 60.5785 449.308C60.3697 448.741 60.0479 448.283 59.6133 447.933C59.1786 447.584 58.6246 447.409 57.9513 447.409C57.2781 447.409 56.7241 447.584 56.2894 447.933C55.8548 448.283 55.533 448.741 55.3242 449.308C55.1154 449.874 55.011 450.486 55.011 451.142C55.011 451.798 55.1154 452.408 55.3242 452.97C55.533 453.533 55.8548 453.987 56.2894 454.332C56.7241 454.677 57.2781 454.849 57.9513 454.849ZM70.8904 451.986V446.182H72.399V456H70.8904V454.338H70.7882C70.5581 454.837 70.2001 455.261 69.7143 455.61C69.2285 455.955 68.6149 456.128 67.8734 456.128C67.2598 456.128 66.7143 455.994 66.237 455.725C65.7598 455.452 65.3848 455.043 65.112 454.498C64.8393 453.948 64.7029 453.256 64.7029 452.42V446.182H66.2115V452.318C66.2115 453.034 66.4118 453.605 66.8123 454.031C67.2172 454.457 67.7328 454.67 68.3592 454.67C68.7342 454.67 69.1156 454.575 69.5034 454.383C69.8954 454.191 70.2235 453.897 70.4877 453.501C70.7562 453.104 70.8904 452.599 70.8904 451.986ZM81.733 450.094V456H80.2244V442.909H81.733V447.716H81.8608C82.0909 447.209 82.4361 446.806 82.8963 446.508C83.3608 446.205 83.9787 446.054 84.75 446.054C85.419 446.054 86.005 446.188 86.5078 446.457C87.0107 446.721 87.4006 447.128 87.6776 447.678C87.9588 448.223 88.0994 448.918 88.0994 449.761V456H86.5909V449.864C86.5909 449.084 86.3885 448.481 85.9837 448.055C85.5831 447.624 85.027 447.409 84.3153 447.409C83.821 447.409 83.3778 447.513 82.9858 447.722C82.598 447.931 82.2912 448.236 82.0653 448.636C81.8438 449.037 81.733 449.523 81.733 450.094ZM93.7484 456.23C93.1262 456.23 92.5616 456.113 92.0545 455.879C91.5474 455.64 91.1447 455.297 90.8464 454.849C90.5481 454.398 90.399 453.852 90.399 453.213C90.399 452.651 90.5098 452.195 90.7314 451.845C90.9529 451.491 91.2491 451.214 91.6199 451.014C91.9906 450.814 92.3997 450.665 92.8471 450.567C93.2988 450.464 93.7527 450.384 94.2086 450.324C94.8052 450.247 95.2889 450.19 95.6596 450.151C96.0346 450.109 96.3074 450.038 96.4778 449.94C96.6525 449.842 96.7399 449.672 96.7399 449.429V449.378C96.7399 448.747 96.5673 448.257 96.2221 447.908C95.8812 447.558 95.3635 447.384 94.6689 447.384C93.9487 447.384 93.3841 447.541 92.975 447.857C92.5659 448.172 92.2782 448.509 92.112 448.866L90.6802 448.355C90.9359 447.759 91.2768 447.294 91.7029 446.962C92.1333 446.625 92.6021 446.391 93.1092 446.259C93.6206 446.122 94.1234 446.054 94.6177 446.054C94.9331 446.054 95.2953 446.092 95.7044 446.169C96.1177 446.241 96.5162 446.393 96.8997 446.623C97.2875 446.853 97.6092 447.2 97.8649 447.665C98.1206 448.129 98.2484 448.751 98.2484 449.531V456H96.7399V454.67H96.6632C96.5609 454.884 96.3904 455.112 96.1518 455.354C95.9132 455.597 95.5957 455.804 95.1994 455.974C94.8031 456.145 94.3194 456.23 93.7484 456.23ZM93.9785 454.875C94.5751 454.875 95.0779 454.758 95.487 454.523C95.9004 454.289 96.2115 453.987 96.4203 453.616C96.6333 453.245 96.7399 452.855 96.7399 452.446V451.065C96.676 451.142 96.5353 451.212 96.318 451.276C96.1049 451.336 95.8578 451.389 95.5765 451.436C95.2995 451.479 95.0289 451.517 94.7647 451.551C94.5048 451.581 94.2939 451.607 94.1319 451.628C93.7399 451.679 93.3734 451.762 93.0325 451.877C92.6958 451.988 92.4231 452.156 92.2143 452.382C92.0098 452.604 91.9075 452.906 91.9075 453.29C91.9075 453.814 92.1014 454.21 92.4892 454.479C92.8812 454.743 93.3777 454.875 93.9785 454.875ZM108.679 446.182L105.048 456H103.514L99.8832 446.182H101.52L104.23 454.006H104.332L107.042 446.182H108.679ZM114.435 456.205C113.489 456.205 112.673 455.996 111.987 455.578C111.305 455.156 110.778 454.568 110.408 453.814C110.041 453.055 109.858 452.173 109.858 451.168C109.858 450.162 110.041 449.276 110.408 448.509C110.778 447.737 111.294 447.136 111.955 446.706C112.619 446.271 113.395 446.054 114.281 446.054C114.793 446.054 115.298 446.139 115.796 446.31C116.295 446.48 116.749 446.757 117.158 447.141C117.567 447.52 117.893 448.023 118.136 448.649C118.379 449.276 118.5 450.047 118.5 450.963V451.602H110.932V450.298H116.966C116.966 449.744 116.855 449.25 116.634 448.815C116.416 448.381 116.105 448.038 115.7 447.786C115.3 447.535 114.827 447.409 114.281 447.409C113.68 447.409 113.161 447.558 112.722 447.857C112.287 448.151 111.952 448.534 111.718 449.007C111.484 449.48 111.366 449.987 111.366 450.528V451.398C111.366 452.139 111.494 452.768 111.75 453.283C112.01 453.795 112.37 454.185 112.83 454.453C113.29 454.717 113.825 454.849 114.435 454.849C114.831 454.849 115.189 454.794 115.509 454.683C115.832 454.568 116.112 454.398 116.346 454.172C116.58 453.942 116.761 453.656 116.889 453.315L118.347 453.724C118.193 454.219 117.935 454.653 117.573 455.028C117.211 455.399 116.763 455.689 116.231 455.898C115.698 456.102 115.099 456.205 114.435 456.205ZM128.746 456.23C128.124 456.23 127.56 456.113 127.053 455.879C126.545 455.64 126.143 455.297 125.844 454.849C125.546 454.398 125.397 453.852 125.397 453.213C125.397 452.651 125.508 452.195 125.729 451.845C125.951 451.491 126.247 451.214 126.618 451.014C126.989 450.814 127.398 450.665 127.845 450.567C128.297 450.464 128.751 450.384 129.207 450.324C129.803 450.247 130.287 450.19 130.658 450.151C131.033 450.109 131.305 450.038 131.476 449.94C131.651 449.842 131.738 449.672 131.738 449.429V449.378C131.738 448.747 131.565 448.257 131.22 447.908C130.879 447.558 130.362 447.384 129.667 447.384C128.947 447.384 128.382 447.541 127.973 447.857C127.564 448.172 127.276 448.509 127.11 448.866L125.678 448.355C125.934 447.759 126.275 447.294 126.701 446.962C127.131 446.625 127.6 446.391 128.107 446.259C128.619 446.122 129.121 446.054 129.616 446.054C129.931 446.054 130.293 446.092 130.702 446.169C131.116 446.241 131.514 446.393 131.898 446.623C132.286 446.853 132.607 447.2 132.863 447.665C133.119 448.129 133.246 448.751 133.246 449.531V456H131.738V454.67H131.661C131.559 454.884 131.388 455.112 131.15 455.354C130.911 455.597 130.594 455.804 130.197 455.974C129.801 456.145 129.317 456.23 128.746 456.23ZM128.977 454.875C129.573 454.875 130.076 454.758 130.485 454.523C130.898 454.289 131.21 453.987 131.418 453.616C131.631 453.245 131.738 452.855 131.738 452.446V451.065C131.674 451.142 131.533 451.212 131.316 451.276C131.103 451.336 130.856 451.389 130.575 451.436C130.298 451.479 130.027 451.517 129.763 451.551C129.503 451.581 129.292 451.607 129.13 451.628C128.738 451.679 128.371 451.762 128.031 451.877C127.694 451.988 127.421 452.156 127.212 452.382C127.008 452.604 126.906 452.906 126.906 453.29C126.906 453.814 127.099 454.21 127.487 454.479C127.879 454.743 128.376 454.875 128.977 454.875ZM139.988 456.205C139.068 456.205 138.275 455.987 137.611 455.553C136.946 455.118 136.434 454.519 136.077 453.756C135.719 452.994 135.54 452.122 135.54 451.142C135.54 450.145 135.723 449.265 136.089 448.502C136.46 447.735 136.976 447.136 137.636 446.706C138.301 446.271 139.077 446.054 139.963 446.054C140.653 446.054 141.275 446.182 141.829 446.438C142.383 446.693 142.837 447.051 143.191 447.511C143.545 447.972 143.764 448.509 143.849 449.122H142.341C142.226 448.675 141.97 448.278 141.574 447.933C141.182 447.584 140.653 447.409 139.988 447.409C139.4 447.409 138.885 447.562 138.442 447.869C138.003 448.172 137.66 448.6 137.412 449.154C137.17 449.704 137.048 450.349 137.048 451.091C137.048 451.849 137.167 452.51 137.406 453.072C137.649 453.635 137.99 454.072 138.429 454.383C138.872 454.694 139.392 454.849 139.988 454.849C140.381 454.849 140.736 454.781 141.056 454.645C141.376 454.509 141.646 454.312 141.868 454.057C142.089 453.801 142.247 453.494 142.341 453.136H143.849C143.764 453.716 143.553 454.238 143.216 454.702C142.884 455.163 142.443 455.529 141.893 455.802C141.348 456.07 140.713 456.205 139.988 456.205ZM150.324 446.182V447.46H145.236V446.182H150.324ZM146.719 443.83H148.228V453.188C148.228 453.614 148.29 453.933 148.413 454.146C148.541 454.355 148.703 454.496 148.899 454.568C149.099 454.636 149.31 454.67 149.532 454.67C149.698 454.67 149.834 454.662 149.941 454.645C150.047 454.624 150.133 454.607 150.197 454.594L150.503 455.949C150.401 455.987 150.258 456.026 150.075 456.064C149.892 456.107 149.66 456.128 149.378 456.128C148.952 456.128 148.535 456.036 148.126 455.853C147.721 455.67 147.384 455.391 147.116 455.016C146.851 454.641 146.719 454.168 146.719 453.597V443.83ZM152.594 456V446.182H154.102V456H152.594ZM153.361 444.545C153.067 444.545 152.813 444.445 152.6 444.245C152.391 444.045 152.287 443.804 152.287 443.523C152.287 443.241 152.391 443.001 152.6 442.8C152.813 442.6 153.067 442.5 153.361 442.5C153.655 442.5 153.906 442.6 154.115 442.8C154.328 443.001 154.434 443.241 154.434 443.523C154.434 443.804 154.328 444.045 154.115 444.245C153.906 444.445 153.655 444.545 153.361 444.545ZM164.893 446.182L161.263 456H159.729L156.098 446.182H157.734L160.445 454.006H160.547L163.257 446.182H164.893ZM170.65 456.205C169.703 456.205 168.887 455.996 168.201 455.578C167.52 455.156 166.993 454.568 166.623 453.814C166.256 453.055 166.073 452.173 166.073 451.168C166.073 450.162 166.256 449.276 166.623 448.509C166.993 447.737 167.509 447.136 168.169 446.706C168.834 446.271 169.61 446.054 170.496 446.054C171.007 446.054 171.512 446.139 172.011 446.31C172.51 446.48 172.963 446.757 173.373 447.141C173.782 447.52 174.108 448.023 174.35 448.649C174.593 449.276 174.715 450.047 174.715 450.963V451.602H167.147V450.298H173.181C173.181 449.744 173.07 449.25 172.848 448.815C172.631 448.381 172.32 448.038 171.915 447.786C171.515 447.535 171.042 447.409 170.496 447.409C169.895 447.409 169.375 447.558 168.936 447.857C168.502 448.151 168.167 448.534 167.933 449.007C167.699 449.48 167.581 449.987 167.581 450.528V451.398C167.581 452.139 167.709 452.768 167.965 453.283C168.225 453.795 168.585 454.185 169.045 454.453C169.505 454.717 170.04 454.849 170.65 454.849C171.046 454.849 171.404 454.794 171.723 454.683C172.047 454.568 172.326 454.398 172.561 454.172C172.795 453.942 172.976 453.656 173.104 453.315L174.561 453.724C174.408 454.219 174.15 454.653 173.788 455.028C173.426 455.399 172.978 455.689 172.446 455.898C171.913 456.102 171.314 456.205 170.65 456.205ZM186.956 456L189.103 442.909H190.382L188.234 456H186.956ZM180.998 452.369L181.203 451.091H190.97L190.765 452.369H180.998ZM182.353 456L184.501 442.909H185.779L183.632 456H182.353ZM181.765 447.818L181.97 446.54H191.737L191.532 447.818H181.765ZM202.76 446.182V447.46H197.672V446.182H202.76ZM199.155 443.83H200.663V453.188C200.663 453.614 200.725 453.933 200.849 454.146C200.977 454.355 201.138 454.496 201.335 454.568C201.535 454.636 201.746 454.67 201.967 454.67C202.134 454.67 202.27 454.662 202.376 454.645C202.483 454.624 202.568 454.607 202.632 454.594L202.939 455.949C202.837 455.987 202.694 456.026 202.511 456.064C202.327 456.107 202.095 456.128 201.814 456.128C201.388 456.128 200.97 456.036 200.561 455.853C200.156 455.67 199.82 455.391 199.551 455.016C199.287 454.641 199.155 454.168 199.155 453.597V443.83ZM207.918 456.23C207.296 456.23 206.732 456.113 206.224 455.879C205.717 455.64 205.315 455.297 205.016 454.849C204.718 454.398 204.569 453.852 204.569 453.213C204.569 452.651 204.68 452.195 204.901 451.845C205.123 451.491 205.419 451.214 205.79 451.014C206.161 450.814 206.57 450.665 207.017 450.567C207.469 450.464 207.923 450.384 208.379 450.324C208.975 450.247 209.459 450.19 209.83 450.151C210.205 450.109 210.477 450.038 210.648 449.94C210.822 449.842 210.91 449.672 210.91 449.429V449.378C210.91 448.747 210.737 448.257 210.392 447.908C210.051 447.558 209.533 447.384 208.839 447.384C208.119 447.384 207.554 447.541 207.145 447.857C206.736 448.172 206.448 448.509 206.282 448.866L204.85 448.355C205.106 447.759 205.447 447.294 205.873 446.962C206.303 446.625 206.772 446.391 207.279 446.259C207.79 446.122 208.293 446.054 208.788 446.054C209.103 446.054 209.465 446.092 209.874 446.169C210.288 446.241 210.686 446.393 211.07 446.623C211.457 446.853 211.779 447.2 212.035 447.665C212.29 448.129 212.418 448.751 212.418 449.531V456H210.91V454.67H210.833C210.731 454.884 210.56 455.112 210.322 455.354C210.083 455.597 209.766 455.804 209.369 455.974C208.973 456.145 208.489 456.23 207.918 456.23ZM208.148 454.875C208.745 454.875 209.248 454.758 209.657 454.523C210.07 454.289 210.381 453.987 210.59 453.616C210.803 453.245 210.91 452.855 210.91 452.446V451.065C210.846 451.142 210.705 451.212 210.488 451.276C210.275 451.336 210.028 451.389 209.746 451.436C209.469 451.479 209.199 451.517 208.935 451.551C208.675 451.581 208.464 451.607 208.302 451.628C207.91 451.679 207.543 451.762 207.202 451.877C206.866 451.988 206.593 452.156 206.384 452.382C206.18 452.604 206.077 452.906 206.077 453.29C206.077 453.814 206.271 454.21 206.659 454.479C207.051 454.743 207.548 454.875 208.148 454.875ZM222.126 448.381L220.771 448.764C220.686 448.538 220.56 448.319 220.394 448.106C220.232 447.888 220.01 447.71 219.729 447.569C219.448 447.428 219.088 447.358 218.649 447.358C218.048 447.358 217.547 447.496 217.147 447.773C216.751 448.046 216.552 448.393 216.552 448.815C216.552 449.19 216.689 449.487 216.961 449.704C217.234 449.921 217.66 450.102 218.24 450.247L219.697 450.605C220.575 450.818 221.229 451.144 221.66 451.583C222.09 452.018 222.305 452.578 222.305 453.264C222.305 453.827 222.143 454.33 221.819 454.773C221.5 455.216 221.052 455.565 220.477 455.821C219.902 456.077 219.233 456.205 218.47 456.205C217.469 456.205 216.64 455.987 215.983 455.553C215.327 455.118 214.912 454.483 214.737 453.648L216.169 453.29C216.305 453.818 216.563 454.214 216.942 454.479C217.326 454.743 217.827 454.875 218.444 454.875C219.148 454.875 219.706 454.726 220.119 454.428C220.537 454.125 220.746 453.763 220.746 453.341C220.746 453 220.626 452.714 220.388 452.484C220.149 452.25 219.782 452.075 219.288 451.96L217.652 451.577C216.753 451.364 216.092 451.033 215.67 450.586C215.253 450.134 215.044 449.57 215.044 448.892C215.044 448.338 215.199 447.848 215.51 447.422C215.826 446.996 216.254 446.661 216.795 446.418C217.341 446.175 217.959 446.054 218.649 446.054C219.621 446.054 220.383 446.267 220.937 446.693C221.496 447.119 221.892 447.682 222.126 448.381ZM225.982 452.42L225.957 450.554H226.263L230.559 446.182H232.425L227.849 450.81H227.721L225.982 452.42ZM224.576 456V442.909H226.085V456H224.576ZM230.815 456L226.979 451.142L228.053 450.094L232.732 456H230.815ZM241.322 448.381L239.966 448.764C239.881 448.538 239.756 448.319 239.589 448.106C239.427 447.888 239.206 447.71 238.925 447.569C238.643 447.428 238.283 447.358 237.844 447.358C237.243 447.358 236.743 447.496 236.342 447.773C235.946 448.046 235.748 448.393 235.748 448.815C235.748 449.19 235.884 449.487 236.157 449.704C236.43 449.921 236.856 450.102 237.435 450.247L238.893 450.605C239.77 450.818 240.425 451.144 240.855 451.583C241.285 452.018 241.501 452.578 241.501 453.264C241.501 453.827 241.339 454.33 241.015 454.773C240.695 455.216 240.248 455.565 239.672 455.821C239.097 456.077 238.428 456.205 237.665 456.205C236.664 456.205 235.835 455.987 235.179 455.553C234.523 455.118 234.107 454.483 233.932 453.648L235.364 453.29C235.501 453.818 235.758 454.214 236.138 454.479C236.521 454.743 237.022 454.875 237.64 454.875C238.343 454.875 238.901 454.726 239.314 454.428C239.732 454.125 239.941 453.763 239.941 453.341C239.941 453 239.822 452.714 239.583 452.484C239.344 452.25 238.978 452.075 238.483 451.96L236.847 451.577C235.948 451.364 235.287 451.033 234.866 450.586C234.448 450.134 234.239 449.57 234.239 448.892C234.239 448.338 234.395 447.848 234.706 447.422C235.021 446.996 235.449 446.661 235.991 446.418C236.536 446.175 237.154 446.054 237.844 446.054C238.816 446.054 239.579 446.267 240.133 446.693C240.691 447.119 241.087 447.682 241.322 448.381ZM244.871 456.102C244.555 456.102 244.285 455.989 244.059 455.763C243.833 455.538 243.72 455.267 243.72 454.952C243.72 454.636 243.833 454.366 244.059 454.14C244.285 453.914 244.555 453.801 244.871 453.801C245.186 453.801 245.457 453.914 245.683 454.14C245.908 454.366 246.021 454.636 246.021 454.952C246.021 455.161 245.968 455.352 245.862 455.527C245.759 455.702 245.621 455.842 245.446 455.949C245.276 456.051 245.084 456.102 244.871 456.102Z" fill="black"/>
<rect x="289" y="435" width="118" height="28" fill="#C637FF"/>
<path d="M326.574 447.91H324.24C324.198 447.608 324.111 447.34 323.979 447.106C323.848 446.868 323.679 446.665 323.473 446.499C323.267 446.332 323.029 446.204 322.76 446.115C322.493 446.026 322.204 445.982 321.891 445.982C321.327 445.982 320.835 446.122 320.416 446.403C319.997 446.68 319.672 447.085 319.441 447.617C319.21 448.146 319.095 448.789 319.095 449.545C319.095 450.323 319.21 450.977 319.441 451.506C319.675 452.035 320.002 452.434 320.421 452.704C320.84 452.974 321.325 453.109 321.875 453.109C322.184 453.109 322.47 453.068 322.733 452.987C322.999 452.905 323.235 452.786 323.441 452.63C323.647 452.47 323.818 452.276 323.953 452.049C324.091 451.822 324.187 451.562 324.24 451.271L326.574 451.282C326.513 451.783 326.362 452.266 326.121 452.731C325.883 453.192 325.561 453.606 325.157 453.972C324.755 454.334 324.276 454.622 323.718 454.835C323.164 455.044 322.538 455.149 321.838 455.149C320.865 455.149 319.995 454.929 319.228 454.489C318.464 454.048 317.861 453.411 317.417 452.576C316.977 451.742 316.756 450.732 316.756 449.545C316.756 448.356 316.98 447.344 317.428 446.509C317.875 445.675 318.482 445.039 319.249 444.602C320.016 444.162 320.879 443.942 321.838 443.942C322.47 443.942 323.056 444.031 323.596 444.208C324.139 444.386 324.62 444.645 325.039 444.986C325.458 445.323 325.799 445.737 326.062 446.227C326.328 446.717 326.499 447.278 326.574 447.91ZM330.454 444.091V455H328.185V444.091H330.454ZM336 455.16C335.159 455.16 334.434 454.989 333.827 454.648C333.223 454.304 332.758 453.817 332.432 453.189C332.105 452.557 331.941 451.809 331.941 450.946C331.941 450.105 332.105 449.366 332.432 448.73C332.758 448.095 333.218 447.599 333.811 447.244C334.408 446.889 335.107 446.712 335.91 446.712C336.45 446.712 336.952 446.799 337.417 446.973C337.886 447.143 338.294 447.401 338.642 447.745C338.994 448.089 339.267 448.523 339.463 449.045C339.658 449.563 339.756 450.17 339.756 450.866V451.49H332.847V450.083H337.62C337.62 449.757 337.549 449.467 337.407 449.215C337.265 448.963 337.068 448.766 336.815 448.624C336.567 448.478 336.277 448.406 335.947 448.406C335.603 448.406 335.297 448.485 335.031 448.645C334.768 448.801 334.562 449.013 334.413 449.279C334.264 449.542 334.188 449.835 334.184 450.158V451.495C334.184 451.9 334.259 452.25 334.408 452.544C334.56 452.839 334.775 453.066 335.052 453.226C335.329 453.386 335.658 453.466 336.038 453.466C336.29 453.466 336.521 453.43 336.73 453.359C336.94 453.288 337.119 453.182 337.268 453.04C337.417 452.898 337.531 452.724 337.609 452.518L339.708 452.656C339.601 453.161 339.383 453.601 339.053 453.977C338.726 454.35 338.303 454.641 337.785 454.851C337.27 455.057 336.675 455.16 336 455.16ZM343.57 455.154C343.048 455.154 342.582 455.064 342.174 454.883C341.766 454.698 341.443 454.426 341.205 454.068C340.97 453.706 340.853 453.255 340.853 452.715C340.853 452.26 340.937 451.879 341.103 451.57C341.27 451.261 341.498 451.012 341.785 450.824C342.073 450.636 342.4 450.494 342.765 450.398C343.135 450.302 343.522 450.234 343.927 450.195C344.402 450.146 344.786 450.099 345.077 450.057C345.368 450.011 345.58 449.943 345.711 449.854C345.842 449.766 345.908 449.634 345.908 449.46V449.428C345.908 449.091 345.802 448.83 345.589 448.645C345.379 448.461 345.081 448.368 344.694 448.368C344.285 448.368 343.96 448.459 343.719 448.64C343.477 448.817 343.318 449.041 343.239 449.311L341.141 449.141C341.247 448.643 341.457 448.214 341.769 447.852C342.082 447.486 342.485 447.205 342.978 447.01C343.476 446.811 344.051 446.712 344.704 446.712C345.159 446.712 345.594 446.765 346.009 446.871C346.428 446.978 346.799 447.143 347.123 447.367C347.449 447.591 347.707 447.878 347.895 448.23C348.083 448.578 348.177 448.995 348.177 449.482V455H346.025V453.865H345.961C345.83 454.121 345.654 454.347 345.434 454.542C345.214 454.734 344.949 454.885 344.64 454.995C344.331 455.101 343.975 455.154 343.57 455.154ZM344.22 453.588C344.553 453.588 344.848 453.523 345.104 453.391C345.359 453.256 345.56 453.075 345.706 452.848C345.851 452.621 345.924 452.363 345.924 452.076V451.207C345.853 451.254 345.755 451.296 345.631 451.335C345.51 451.371 345.374 451.404 345.221 451.436C345.068 451.465 344.916 451.491 344.763 451.516C344.61 451.538 344.472 451.557 344.347 451.575C344.081 451.614 343.848 451.676 343.65 451.761C343.451 451.847 343.296 451.962 343.186 452.108C343.076 452.25 343.021 452.427 343.021 452.64C343.021 452.949 343.133 453.185 343.357 453.349C343.584 453.509 343.872 453.588 344.22 453.588ZM349.938 455V446.818H352.138V448.246H352.223C352.372 447.738 352.622 447.354 352.974 447.095C353.326 446.832 353.73 446.701 354.188 446.701C354.302 446.701 354.425 446.708 354.556 446.722C354.687 446.737 354.803 446.756 354.902 446.781V448.794C354.796 448.762 354.648 448.734 354.46 448.709C354.272 448.684 354.1 448.672 353.943 448.672C353.61 448.672 353.311 448.745 353.049 448.89C352.789 449.032 352.583 449.231 352.431 449.487C352.282 449.743 352.207 450.037 352.207 450.371V455H349.938ZM361.47 455H358.998L362.764 444.091H365.737L369.497 455H367.026L364.293 446.584H364.208L361.47 455ZM361.316 450.712H367.154V452.512H361.316V450.712ZM373.037 444.091V455H370.768V444.091H373.037ZM377.124 444.091V455H374.855V444.091H377.124Z" fill="white"/>
</svg>
